<?xml version="1.0" encoding="UTF-8"?>
<svg width="298px" height="38px" viewBox="0 0 298 38" version="1.1" xmlns="http://www.w3.org/2000/svg" xmlns:xlink="http://www.w3.org/1999/xlink">
    <!-- Generator: Sketch 50.2 (55047) - http://www.bohemiancoding.com/sketch -->
    <title>Group</title>
    <desc>Created with Sketch.</desc>
    <defs></defs>
    <g id="Page-1" stroke="none" stroke-width="1" fill="none" fill-rule="evenodd">
        <g id="Group">
            <rect id="Rectangle-2" fill="#7C8B9E" x="141" y="0" width="156" height="38"></rect>
            <path d="M142,2 L142,36 L296,36 L296,2 L142,2 Z M140,0 L298,0 L298,38 L140,38 L140,0 Z" id="Rectangle" fill="#FFFFFF" fill-rule="nonzero"></path>
            <polygon id="Line" fill="#FFFFFF" fill-rule="nonzero" points="258.5 36.5 256.5 36.5 256.5 1.49000168 258.5 1.49000168"></polygon>
            <path d="M152.6905,9.507 L165.7735,9.507 L165.7735,12.741 L156.537,12.741 L156.537,16.4895 L165.014,16.4895 L165.014,19.4785 L156.537,19.4785 L156.537,23.766 L165.9695,23.766 L165.9695,27 L152.6905,27 L152.6905,9.507 Z M168.297,9.507 L171.776,9.507 L171.776,27 L168.297,27 L168.297,9.507 Z M183.046,19.307 C182.882666,18.4249956 182.592752,17.7553356 182.17625,17.298 C181.759748,16.8406644 181.126838,16.612 180.2775,16.612 C179.722164,16.612 179.260752,16.7059157 178.89325,16.89375 C178.525748,17.0815843 178.231751,17.3143319 178.01125,17.592 C177.790749,17.8696681 177.635584,18.1636651 177.54575,18.474 C177.455916,18.7843349 177.402833,19.0619988 177.3865,19.307 L183.046,19.307 Z M177.3865,21.512 C177.4355,22.6390056 177.721331,23.4556641 178.244,23.962 C178.766669,24.4683359 179.517995,24.7215 180.498,24.7215 C181.200337,24.7215 181.804664,24.5459184 182.311,24.19475 C182.817336,23.8435816 183.127666,23.472002 183.242,23.08 L186.3045,23.08 C185.814498,24.5990076 185.063172,25.6851634 184.0505,26.3385 C183.037828,26.9918366 181.812841,27.3185 180.3755,27.3185 C179.379162,27.3185 178.480837,27.1592516 177.6805,26.84075 C176.880163,26.5222484 176.202336,26.0690029 175.647,25.481 C175.091664,24.8929971 174.662918,24.1906708 174.36075,23.374 C174.058582,22.5573293 173.9075,21.6590049 173.9075,20.679 C173.9075,19.7316619 174.062665,18.8496707 174.373,18.033 C174.683335,17.2163293 175.12433,16.5099196 175.696,15.91375 C176.26767,15.3175804 176.949579,14.8480017 177.74175,14.505 C178.533921,14.1619983 179.411829,13.9905 180.3755,13.9905 C181.453505,13.9905 182.392663,14.1987479 183.193,14.61525 C183.993337,15.0317521 184.650747,15.5911632 185.16525,16.2935 C185.679753,16.9958368 186.051332,17.7961622 186.28,18.6945 C186.508668,19.5928378 186.590334,20.5319951 186.525,21.512 L177.3865,21.512 Z M188.681,14.3335 L191.964,14.3335 L191.964,16.0485 L192.013,16.0485 C192.470336,15.3951634 193.02158,14.8888351 193.66675,14.5295 C194.31192,14.1701649 195.050996,13.9905 195.884,13.9905 C196.684337,13.9905 197.415247,14.1456651 198.07675,14.456 C198.738253,14.7663349 199.240498,15.3134961 199.5835,16.0975 C199.959169,15.5421639 200.46958,15.0521688 201.11475,14.6275 C201.75992,14.2028312 202.523496,13.9905 203.4055,13.9905 C204.07517,13.9905 204.69583,14.0721658 205.2675,14.2355 C205.83917,14.3988341 206.329165,14.6601649 206.7375,15.0195 C207.145835,15.3788351 207.464332,15.8484138 207.693,16.42825 C207.921668,17.0080862 208.036,17.7063292 208.036,18.523 L208.036,27 L204.557,27 L204.557,19.8215 C204.557,19.3968312 204.540667,18.9966685 204.508,18.621 C204.475333,18.2453315 204.385501,17.9186681 204.2385,17.641 C204.091499,17.3633319 203.875085,17.1428341 203.58925,16.9795 C203.303415,16.8161659 202.915502,16.7345 202.4255,16.7345 C201.935498,16.7345 201.539418,16.8284157 201.23725,17.01625 C200.935082,17.2040843 200.698251,17.4490818 200.52675,17.75125 C200.355249,18.0534182 200.240917,18.3964147 200.18375,18.78025 C200.126583,19.1640853 200.098,19.551998 200.098,19.944 L200.098,27 L196.619,27 L196.619,19.895 C196.619,19.5193315 196.610833,19.1477518 196.5945,18.78025 C196.578167,18.4127482 196.508751,18.0738349 196.38625,17.7635 C196.263749,17.4531651 196.059585,17.2040843 195.77375,17.01625 C195.487915,16.8284157 195.067336,16.7345 194.512,16.7345 C194.348666,16.7345 194.132251,16.7712496 193.86275,16.84475 C193.593249,16.9182504 193.331918,17.0570823 193.07875,17.26125 C192.825582,17.4654177 192.609168,17.7594147 192.4295,18.14325 C192.249832,18.5270853 192.16,19.0293302 192.16,19.65 L192.16,27 L188.681,27 L188.681,14.3335 Z M219.306,19.307 C219.142666,18.4249956 218.852752,17.7553356 218.43625,17.298 C218.019748,16.8406644 217.386838,16.612 216.5375,16.612 C215.982164,16.612 215.520752,16.7059157 215.15325,16.89375 C214.785748,17.0815843 214.491751,17.3143319 214.27125,17.592 C214.050749,17.8696681 213.895584,18.1636651 213.80575,18.474 C213.715916,18.7843349 213.662833,19.0619988 213.6465,19.307 L219.306,19.307 Z M213.6465,21.512 C213.6955,22.6390056 213.981331,23.4556641 214.504,23.962 C215.026669,24.4683359 215.777995,24.7215 216.758,24.7215 C217.460337,24.7215 218.064664,24.5459184 218.571,24.19475 C219.077336,23.8435816 219.387666,23.472002 219.502,23.08 L222.5645,23.08 C222.074498,24.5990076 221.323172,25.6851634 220.3105,26.3385 C219.297828,26.9918366 218.072841,27.3185 216.6355,27.3185 C215.639162,27.3185 214.740837,27.1592516 213.9405,26.84075 C213.140163,26.5222484 212.462336,26.0690029 211.907,25.481 C211.351664,24.8929971 210.922918,24.1906708 210.62075,23.374 C210.318582,22.5573293 210.1675,21.6590049 210.1675,20.679 C210.1675,19.7316619 210.322665,18.8496707 210.633,18.033 C210.943335,17.2163293 211.38433,16.5099196 211.956,15.91375 C212.52767,15.3175804 213.209579,14.8480017 214.00175,14.505 C214.793921,14.1619983 215.671829,13.9905 216.6355,13.9905 C217.713505,13.9905 218.652663,14.1987479 219.453,14.61525 C220.253337,15.0317521 220.910747,15.5911632 221.42525,16.2935 C221.939753,16.9958368 222.311332,17.7961622 222.54,18.6945 C222.768668,19.5928378 222.850334,20.5319951 222.785,21.512 L213.6465,21.512 Z M224.843,14.3335 L228.1505,14.3335 L228.1505,16.0975 L228.224,16.0975 C228.665002,15.3624963 229.236663,14.827585 229.939,14.49275 C230.641337,14.157915 231.359996,13.9905 232.095,13.9905 C233.026005,13.9905 233.78958,14.1170821 234.38575,14.37025 C234.98192,14.6234179 235.451498,14.9745811 235.7945,15.42375 C236.137502,15.8729189 236.378416,16.4200801 236.51725,17.06525 C236.656084,17.7104199 236.7255,18.4249961 236.7255,19.209 L236.7255,27 L233.2465,27 L233.2465,19.846 C233.2465,18.8006614 233.083168,18.0207526 232.7565,17.50625 C232.429832,16.9917474 231.850004,16.7345 231.017,16.7345 C230.069662,16.7345 229.383669,17.0162472 228.959,17.57975 C228.534331,18.1432528 228.322,19.0701602 228.322,20.3605 L228.322,27 L224.843,27 L224.843,14.3335 Z M243.7815,14.3335 L246.3295,14.3335 L246.3295,16.661 L243.7815,16.661 L243.7815,22.933 C243.7815,23.5210029 243.879499,23.912999 244.0755,24.109 C244.271501,24.305001 244.663497,24.403 245.2515,24.403 C245.447501,24.403 245.635332,24.3948334 245.815,24.3785 C245.994668,24.3621666 246.166166,24.3376668 246.3295,24.305 L246.3295,27 C246.035499,27.0490002 245.708835,27.0816666 245.3495,27.098 C244.990165,27.1143334 244.639002,27.1225 244.296,27.1225 C243.756997,27.1225 243.246586,27.0857504 242.76475,27.01225 C242.282914,26.9387496 241.858252,26.7958344 241.49075,26.5835 C241.123248,26.3711656 240.833334,26.069002 240.621,25.677 C240.408666,25.284998 240.3025,24.7705032 240.3025,24.1335 L240.3025,16.661 L238.1955,16.661 L238.1955,14.3335 L240.3025,14.3335 L240.3025,10.536 L243.7815,10.536 L243.7815,14.3335 Z" id="Element" fill="#FFFFFF"></path>
            <path d="M268.214,15.505 C268.214,16.2400037 268.475331,16.7994147 268.998,17.18325 C269.520669,17.5670853 270.133163,17.759 270.8355,17.759 C271.570504,17.759 272.182998,17.5670853 272.673,17.18325 C273.163002,16.7994147 273.408,16.2400037 273.408,15.505 C273.408,15.2763322 273.375334,15.0272513 273.31,14.75775 C273.244666,14.4882487 273.118084,14.2310012 272.93025,13.986 C272.742416,13.7409988 272.481085,13.5368342 272.14625,13.3735 C271.811415,13.2101658 271.374503,13.1285 270.8355,13.1285 C270.492498,13.1285 270.161752,13.1815828 269.84325,13.28775 C269.524748,13.3939172 269.243001,13.544999 268.998,13.741 C268.752999,13.937001 268.561084,14.1819985 268.42225,14.476 C268.283416,14.7700015 268.214,15.112998 268.214,15.505 Z M265.0535,15.1865 C265.0535,14.4188295 265.224998,13.7410029 265.568,13.153 C265.911002,12.5649971 266.356081,12.075002 266.90325,11.683 C267.450419,11.290998 268.066997,10.997001 268.753,10.801 C269.439003,10.604999 270.133163,10.507 270.8355,10.507 C271.897172,10.507 272.795496,10.6703317 273.5305,10.997 C274.265504,11.3236683 274.857581,11.7197477 275.30675,12.18525 C275.755919,12.6507523 276.078499,13.148914 276.2745,13.67975 C276.470501,14.210586 276.5685,14.6883312 276.5685,15.113 C276.5685,15.9623376 276.360252,16.7054968 275.94375,17.3425 C275.527248,17.9795032 274.902504,18.4368319 274.0695,18.7145 L274.0695,18.7635 C275.098505,18.9921678 275.890664,19.4780796 276.446,20.22125 C277.001336,20.9644204 277.279,21.8749946 277.279,22.953 C277.279,23.8676712 277.095252,24.65983 276.72775,25.3295 C276.360248,25.99917 275.874336,26.5544978 275.27,26.9955 C274.665664,27.4365022 273.979671,27.7672489 273.212,27.98775 C272.444329,28.2082511 271.660337,28.3185 270.86,28.3185 C270.026996,28.3185 269.222587,28.2164177 268.44675,28.01225 C267.670913,27.8080823 266.976753,27.4855022 266.36425,27.0445 C265.751747,26.6034978 265.261752,26.04817 264.89425,25.3785 C264.526748,24.70883 264.343,23.9085047 264.343,22.9775 C264.343,21.8831612 264.624747,20.9685037 265.18825,20.2335 C265.751753,19.4984963 266.547995,19.0085012 267.577,18.7635 L267.577,18.7145 C266.743996,18.4858322 266.115169,18.0530032 265.6905,17.416 C265.265831,16.7789968 265.0535,16.0358376 265.0535,15.1865 Z M267.822,22.806 C267.822,23.2470022 267.903666,23.6471649 268.067,24.0065 C268.230334,24.3658351 268.446749,24.6720821 268.71625,24.92525 C268.985751,25.1784179 269.308331,25.374416 269.684,25.51325 C270.059669,25.652084 270.451665,25.7215 270.86,25.7215 C271.284669,25.7215 271.672582,25.652084 272.02375,25.51325 C272.374918,25.374416 272.685249,25.1784179 272.95475,24.92525 C273.224251,24.6720821 273.432499,24.3658351 273.5795,24.0065 C273.726501,23.6471649 273.8,23.2551688 273.8,22.8305 C273.8,22.4221646 273.722417,22.050585 273.56725,21.71575 C273.412083,21.380915 273.199751,21.0910012 272.93025,20.846 C272.660749,20.6009988 272.350418,20.4131673 271.99925,20.2825 C271.648082,20.1518327 271.268335,20.0865 270.86,20.0865 C270.010662,20.0865 269.292003,20.3192477 268.704,20.78475 C268.115997,21.2502523 267.822,21.9239956 267.822,22.806 Z M285.266,15.211 L285.1925,15.211 L280.758,21.1645 L285.266,21.1645 L285.266,15.211 Z M285.266,24.031 L278.014,24.031 L278.014,20.846 L285.462,10.85 L288.5735,10.85 L288.5735,21.1645 L290.852,21.1645 L290.852,24.031 L288.5735,24.031 L288.5735,28 L285.266,28 L285.266,24.031 Z" id="84" fill="#FFFFFF"></path>
            <path d="M1.52,20.448 L5.732,20.448 C6.58400426,20.448 7.27399736,20.2320022 7.802,19.8 C8.33000264,19.3679978 8.594,18.7080044 8.594,17.82 C8.594,16.9319956 8.33000264,16.2720022 7.802,15.84 C7.27399736,15.4079978 6.58400426,15.192 5.732,15.192 L1.52,15.192 L1.52,20.448 Z M0.296,14.148 L6.002,14.148 C6.57800288,14.148 7.09999766,14.2289992 7.568,14.391 C8.03600234,14.5530008 8.43799832,14.7929984 8.774,15.111 C9.11000168,15.4290016 9.3679991,15.8159977 9.548,16.272 C9.7280009,16.7280023 9.818,17.2439971 9.818,17.82 C9.818,18.3960029 9.7280009,18.9119977 9.548,19.368 C9.3679991,19.8240023 9.11000168,20.2109984 8.774,20.529 C8.43799832,20.8470016 8.03600234,21.0869992 7.568,21.249 C7.09999766,21.4110008 6.57800288,21.492 6.002,21.492 L1.52,21.492 L1.52,27 L0.296,27 L0.296,14.148 Z M13.976,20.574 C13.976,21.2700035 14.068999,21.9569966 14.255,22.635 C14.4410009,23.3130034 14.728998,23.9189973 15.119,24.453 C15.5090019,24.9870027 16.0099969,25.4159984 16.622,25.74 C17.234003,26.0640016 17.9659957,26.226 18.818,26.226 C19.6700042,26.226 20.3989969,26.0640016 21.005,25.74 C21.611003,25.4159984 22.108998,24.9870027 22.499,24.453 C22.8890019,23.9189973 23.176999,23.3130034 23.363,22.635 C23.5490009,21.9569966 23.642,21.2700035 23.642,20.574 C23.642,19.8659965 23.5490009,19.1760034 23.363,18.504 C23.176999,17.8319966 22.8890019,17.2290027 22.499,16.695 C22.108998,16.1609973 21.611003,15.7320016 21.005,15.408 C20.3989969,15.0839984 19.6700042,14.922 18.818,14.922 C17.9659957,14.922 17.234003,15.0839984 16.622,15.408 C16.0099969,15.7320016 15.5090019,16.1609973 15.119,16.695 C14.728998,17.2290027 14.4410009,17.8319966 14.255,18.504 C14.068999,19.1760034 13.976,19.8659965 13.976,20.574 Z M12.752,20.574 C12.752,19.6859956 12.8779987,18.840004 13.13,18.036 C13.3820012,17.231996 13.7599974,16.5210031 14.264,15.903 C14.7680025,15.2849969 15.4009961,14.7930018 16.163,14.427 C16.9250038,14.0609982 17.8099949,13.878 18.818,13.878 C19.826005,13.878 20.7079962,14.0609982 21.464,14.427 C22.2200037,14.7930018 22.8499974,15.2849969 23.354,15.903 C23.8580025,16.5210031 24.2359987,17.231996 24.488,18.036 C24.7400012,18.840004 24.866,19.6859956 24.866,20.574 C24.866,21.4620044 24.7400012,22.307996 24.488,23.112 C24.2359987,23.916004 23.8580025,24.6239969 23.354,25.236 C22.8499974,25.8480031 22.2200037,26.3369982 21.464,26.703 C20.7079962,27.0690018 19.826005,27.252 18.818,27.252 C17.8099949,27.252 16.9250038,27.0690018 16.163,26.703 C15.4009961,26.3369982 14.7680025,25.8480031 14.264,25.236 C13.7599974,24.6239969 13.3820012,23.916004 13.13,23.112 C12.8779987,22.307996 12.752,21.4620044 12.752,20.574 Z M27.2779999,14.148 L28.5919999,14.148 L31.5079999,25.398 L31.5439999,25.398 L34.6759999,14.148 L36.2059999,14.148 L39.3559999,25.398 L39.3919999,25.398 L42.3259999,14.148 L43.5499999,14.148 L40.0039999,27 L38.7079999,27 L35.4499999,15.498 L35.4139999,15.498 L32.1739999,27 L30.8419999,27 L27.2779999,14.148 Z M46.6999999,14.148 L55.5739999,14.148 L55.5739999,15.192 L47.9239999,15.192 L47.9239999,19.836 L55.0879999,19.836 L55.0879999,20.88 L47.9239999,20.88 L47.9239999,25.956 L55.6639999,25.956 L55.6639999,27 L46.6999999,27 L46.6999999,14.148 Z M60.3979998,20.25 L64.9699998,20.25 C65.3420017,20.25 65.6959981,20.1930006 66.0319998,20.079 C66.3680015,19.9649994 66.6619985,19.8000011 66.9139998,19.584 C67.1660011,19.3679989 67.3669991,19.1070015 67.5169998,18.801 C67.6670006,18.4949985 67.7419998,18.144002 67.7419998,17.748 C67.7419998,16.955996 67.5140021,16.3320023 67.0579998,15.876 C66.6019975,15.4199977 65.9060045,15.192 64.9699998,15.192 L60.3979998,15.192 L60.3979998,20.25 Z M59.1739998,14.148 L65.0599998,14.148 C65.5880024,14.148 66.0889974,14.2139993 66.5629998,14.346 C67.0370022,14.4780007 67.450998,14.6789987 67.8049998,14.949 C68.1590016,15.2190013 68.4409988,15.5669979 68.6509998,15.993 C68.8610009,16.4190021 68.9659998,16.9199971 68.9659998,17.496 C68.9659998,18.3120041 68.7560019,19.019997 68.3359998,19.62 C67.9159977,20.220003 67.2920039,20.6039992 66.4639998,20.772 L66.4639998,20.808 C66.8840019,20.8680003 67.2319984,20.9789992 67.5079998,21.141 C67.7840012,21.3030008 68.0089989,21.5099987 68.1829998,21.762 C68.3570007,22.0140013 68.4829994,22.3049984 68.5609998,22.635 C68.6390002,22.9650016 68.6899997,23.3219981 68.7139998,23.706 C68.7259999,23.9220011 68.7379997,24.1859984 68.7499998,24.498 C68.7619999,24.8100016 68.7859996,25.1249984 68.8219998,25.443 C68.858,25.7610016 68.9149994,26.0609986 68.9929998,26.343 C69.0710002,26.6250014 69.1759991,26.8439992 69.3079998,27 L67.9579998,27 C67.8859994,26.8799994 67.829,26.7330009 67.7869998,26.559 C67.7449996,26.3849991 67.7149999,26.2050009 67.6969998,26.019 C67.6789997,25.8329991 67.6639999,25.6500009 67.6519998,25.47 C67.6399997,25.2899991 67.6279999,25.1340007 67.6159998,25.002 C67.5919997,24.5459977 67.5530001,24.0930023 67.4989998,23.643 C67.4449995,23.1929978 67.3310007,22.7910018 67.1569998,22.437 C66.9829989,22.0829982 66.7310015,21.7980011 66.4009998,21.582 C66.0709982,21.3659989 65.6180027,21.2699999 65.0419998,21.294 L60.3979998,21.294 L60.3979998,27 L59.1739998,27 L59.1739998,14.148 Z M72.9799998,14.148 L81.8539998,14.148 L81.8539998,15.192 L74.2039998,15.192 L74.2039998,19.836 L81.3679998,19.836 L81.3679998,20.88 L74.2039998,20.88 L74.2039998,25.956 L81.9439998,25.956 L81.9439998,27 L72.9799998,27 L72.9799998,14.148 Z M85.4539997,14.148 L89.8999997,14.148 C91.8560095,14.1960002 93.3289948,14.7449948 94.3189997,15.795 C95.3090047,16.8450052 95.8039997,18.4379893 95.8039997,20.574 C95.8039997,22.7100107 95.3090047,24.3029948 94.3189997,25.353 C93.3289948,26.4030052 91.8560095,26.9519998 89.8999997,27 L85.4539997,27 L85.4539997,14.148 Z M86.6779997,25.956 L89.2879997,25.956 C90.2120043,25.956 91.0069964,25.857001 91.6729997,25.659 C92.339003,25.460999 92.8879976,25.1460022 93.3199997,24.714 C93.7520019,24.2819978 94.0699987,23.7240034 94.2739997,23.04 C94.4780007,22.3559966 94.5799997,21.5340048 94.5799997,20.574 C94.5799997,19.6139952 94.4780007,18.7920034 94.2739997,18.108 C94.0699987,17.4239966 93.7520019,16.8660022 93.3199997,16.434 C92.8879976,16.0019978 92.339003,15.687001 91.6729997,15.489 C91.0069964,15.290999 90.2120043,15.192 89.2879997,15.192 L86.6779997,15.192 L86.6779997,25.956 Z M107.612,19.782 L111.824,19.782 C112.316002,19.782 112.741998,19.7250006 113.102,19.611 C113.462001,19.4969994 113.761998,19.341001 114.002,19.143 C114.242001,18.944999 114.421999,18.7140013 114.542,18.45 C114.662,18.1859987 114.722,17.9040015 114.722,17.604 C114.722,15.995992 113.756009,15.192 111.824,15.192 L107.612,15.192 L107.612,19.782 Z M106.388,14.148 L111.824,14.148 C112.364002,14.148 112.882997,14.1989995 113.381,14.301 C113.879002,14.4030005 114.316998,14.5769988 114.695,14.823 C115.073002,15.0690012 115.375998,15.392998 115.604,15.795 C115.832001,16.197002 115.946,16.697997 115.946,17.298 C115.946,17.6340017 115.892,17.9609984 115.784,18.279 C115.675999,18.5970016 115.523001,18.8849987 115.325,19.143 C115.126999,19.4010013 114.893001,19.6199991 114.623,19.8 C114.352998,19.9800009 114.050001,20.1059996 113.714,20.178 L113.714,20.214 C114.542004,20.3220005 115.201997,20.6609971 115.694,21.231 C116.186002,21.8010029 116.432,22.5059958 116.432,23.346 C116.432,23.550001 116.414,23.7809987 116.378,24.039 C116.341999,24.2970013 116.27,24.5609986 116.162,24.831 C116.053999,25.1010014 115.898001,25.3679987 115.694,25.632 C115.489999,25.8960013 115.217001,26.126999 114.875,26.325 C114.532998,26.523001 114.113002,26.6849994 113.615,26.811 C113.116997,26.9370006 112.520003,27 111.824,27 L106.388,27 L106.388,14.148 Z M107.612,25.956 L111.824,25.956 C112.280002,25.956 112.711998,25.9170004 113.12,25.839 C113.528002,25.7609996 113.887998,25.620001 114.2,25.416 C114.512001,25.211999 114.757999,24.9390017 114.938,24.597 C115.118001,24.2549983 115.208,23.8260026 115.208,23.31 C115.208,22.4819959 114.917003,21.8610021 114.335,21.447 C113.752997,21.0329979 112.916005,20.826 111.824,20.826 L107.612,20.826 L107.612,25.956 Z M123.776,21.708 L118.736,14.148 L120.176,14.148 L124.406,20.664 L128.618,14.148 L130.076,14.148 L125,21.708 L125,27 L123.776,27 L123.776,21.708 Z" id="POWERED-BY" fill="#7C8B9E"></path>
        </g>
    </g>
</svg>