<?xml version="1.0" encoding="UTF-8"?>
<svg width="179px" height="47px" viewBox="0 0 179 47" version="1.1" xmlns="http://www.w3.org/2000/svg" xmlns:xlink="http://www.w3.org/1999/xlink">
    <!-- Generator: Sketch 51.2 (57519) - http://www.bohemiancoding.com/sketch -->
    <title>ViewTags-Icon</title>
    <desc>Created with Sketch.</desc>
    <defs></defs>
    <g id="Page-1" stroke="none" stroke-width="1" fill="none" fill-rule="evenodd">
        <g id="ViewTags-Icon" transform="translate(1.000000, 0.000000)">
            <g id="Rectangle-5-Copy">
                <g id="path-1-link" transform="translate(11.000000, 1.000000)" fill="#000000" fill-rule="nonzero">
                    <path d="M5.1277704,-2.07168062e-16 L160.87223,2.07168062e-16 C162.655267,-1.2037061e-16 163.30184,0.185651222 163.953691,0.534265408 C164.605543,0.882879593 165.11712,1.39445674 165.465735,2.04630859 C165.814349,2.69816044 166,3.34473292 166,5.1277704 L166,28.8722296 C166,30.6552671 165.814349,31.3018396 165.465735,31.9536914 C165.11712,32.6055433 164.605543,33.1171204 163.953691,33.4657346 C163.30184,33.8143488 162.655267,34 160.87223,34 L5.1277704,34 C3.3447329,34 2.6981604,33.8143488 2.0463086,33.4657346 C1.3944567,33.1171204 0.8828796,32.6055433 0.5342654,31.9536914 C0.1856512,31.3018396 0,30.6552671 0,28.8722296 L0,5.1277704 C0,3.34473292 0.1856512,2.69816044 0.5342654,2.04630859 C0.8828796,1.39445674 1.3944567,0.882879593 2.0463086,0.534265408 C2.6981604,0.185651222 3.3447329,1.2037061e-16 5.1277704,-2.07168062e-16 Z" id="path-1"></path>
                </g>
                <g id="path-1-link" fill-rule="nonzero">
                    <g id="path-1">
                        <g id="path-1-link">
                            <path d="M5.18955077,10 L5.18955077,8 L8.18955077,8 L8.18955077,10 L5.18955077,10 Z M11.1895508,10 L11.1895508,8 L14.1895508,8 L14.1895508,10 L11.1895508,10 Z M17.1895508,10 L17.1895508,8 L20.1895508,8 L20.1895508,10 L17.1895508,10 Z M23.1895508,10 L23.1895508,8 L26.1895508,8 L26.1895508,10 L23.1895508,10 Z M29.1895508,10 L29.1895508,8 L32.1895508,8 L32.1895508,10 L29.1895508,10 Z M35.1895508,10 L35.1895508,8 L38.1895508,8 L38.1895508,10 L35.1895508,10 Z M41.1895508,10 L41.1895508,8 L44.1895508,8 L44.1895508,10 L41.1895508,10 Z M47.1895508,10 L47.1895508,8 L50.1895508,8 L50.1895508,10 L47.1895508,10 Z M53.1895508,10 L53.1895508,8 L56.1895508,8 L56.1895508,10 L53.1895508,10 Z M59.1895508,10 L59.1895508,8 L62.1895508,8 L62.1895508,10 L59.1895508,10 Z M65.1895508,10 L65.1895508,8 L68.1895508,8 L68.1895508,10 L65.1895508,10 Z M71.1895508,10 L71.1895508,8 L74.1895508,8 L74.1895508,10 L71.1895508,10 Z M77.1895508,10 L77.1895508,8 L80.1895508,8 L80.1895508,10 L77.1895508,10 Z M83.1895508,10 L83.1895508,8 L86.1895508,8 L86.1895508,10 L83.1895508,10 Z M89.1895508,10 L89.1895508,8 L92.1895508,8 L92.1895508,10 L89.1895508,10 Z M95.1895508,10 L95.1895508,8 L98.1895508,8 L98.1895508,10 L95.1895508,10 Z M101.189551,10 L101.189551,8 L104.189551,8 L104.189551,10 L101.189551,10 Z M107.189551,10 L107.189551,8 L110.189551,8 L110.189551,10 L107.189551,10 Z M113.189551,10 L113.189551,8 L116.189551,8 L116.189551,10 L113.189551,10 Z M119.189551,10 L119.189551,8 L122.189551,8 L122.189551,10 L119.189551,10 Z M125.189551,10 L125.189551,8 L128.189551,8 L128.189551,10 L125.189551,10 Z M131.189551,10 L131.189551,8 L134.189551,8 L134.189551,10 L131.189551,10 Z M137.189551,10 L137.189551,8 L140.189551,8 L140.189551,10 L137.189551,10 Z M143.189551,10 L143.189551,8 L146.189551,8 L146.189551,10 L143.189551,10 Z M149.189551,10 L149.189551,8 L152.189551,8 L152.189551,10 L149.189551,10 Z M155.189551,10 L155.189551,8 L158.189551,8 L158.189551,10 L155.189551,10 Z M161.189551,10 L161.189551,8 L162.81045,8 C163.393298,8 163.87589,8.02021786 164.28955,8.06232433 L164.087016,10.0520429 C163.7474,10.0174734 163.330317,10 162.81045,10 L161.189551,10 Z M166.102549,10.9892734 L167.585506,9.64731998 C167.882172,9.97515752 168.134796,10.3456455 168.343254,10.7587601 C168.686865,11.4493983 168.859198,12.066413 168.942345,13.003929 L166.950165,13.1806131 C166.888902,12.4898535 166.784263,12.1152085 166.555181,11.6547286 C166.429053,11.4047952 166.277701,11.1828291 166.102549,10.9892734 Z M167,16.0852561 L169,16.0852561 L169,19.0852561 L167,19.0852561 L167,16.0852561 Z M167,22.0852561 L169,22.0852561 L169,25.0852561 L167,25.0852561 L167,22.0852561 Z M167,28.0852561 L169,28.0852561 L169,31.0852561 L167,31.0852561 L167,28.0852561 Z M167,34.0852561 L169,34.0852561 L169,37.0852561 L167,37.0852561 L167,34.0852561 Z M167,40.0852561 L169,40.0852561 L169,40.4197793 C169,41.7834465 168.911394,42.6495161 168.698762,43.3595714 L166.782824,42.7858295 C166.929367,42.2964688 167,41.6060727 167,40.4197793 L167,40.0852561 Z M166.432489,46.2826313 C165.541011,46.7952946 164.68874,46.9835178 163.029351,46.9990026 L163.010688,44.9990897 C164.352254,44.9865707 164.875146,44.8710904 165.43063,44.5516499 L166.432489,46.2826313 Z M160.019039,45 L160.019039,47 L157.019039,47 L157.019039,45 L160.019039,45 Z M154.019039,45 L154.019039,47 L151.019039,47 L151.019039,45 L154.019039,45 Z M148.019039,45 L148.019039,47 L145.019039,47 L145.019039,45 L148.019039,45 Z M142.019039,45 L142.019039,47 L139.019039,47 L139.019039,45 L142.019039,45 Z M136.019039,45 L136.019039,47 L133.019039,47 L133.019039,45 L136.019039,45 Z M130.019039,45 L130.019039,47 L127.019039,47 L127.019039,45 L130.019039,45 Z M124.019039,45 L124.019039,47 L121.019039,47 L121.019039,45 L124.019039,45 Z M118.019039,45 L118.019039,47 L115.019039,47 L115.019039,45 L118.019039,45 Z M112.019039,45 L112.019039,47 L109.019039,47 L109.019039,45 L112.019039,45 Z M106.019039,45 L106.019039,47 L103.019039,47 L103.019039,45 L106.019039,45 Z M100.019039,45 L100.019039,47 L97.0190387,47 L97.0190387,45 L100.019039,45 Z M94.0190387,45 L94.0190387,47 L91.0190387,47 L91.0190387,45 L94.0190387,45 Z M88.0190387,45 L88.0190387,47 L85.0190387,47 L85.0190387,45 L88.0190387,45 Z M82.0190387,45 L82.0190387,47 L79.0190387,47 L79.0190387,45 L82.0190387,45 Z M76.0190387,45 L76.0190387,47 L73.0190387,47 L73.0190387,45 L76.0190387,45 Z M70.0190387,45 L70.0190387,47 L67.0190387,47 L67.0190387,45 L70.0190387,45 Z M64.0190387,45 L64.0190387,47 L61.0190387,47 L61.0190387,45 L64.0190387,45 Z M58.0190387,45 L58.0190387,47 L55.0190387,47 L55.0190387,45 L58.0190387,45 Z M52.0190387,45 L52.0190387,47 L49.0190387,47 L49.0190387,45 L52.0190387,45 Z M46.0190387,45 L46.0190387,47 L43.0190387,47 L43.0190387,45 L46.0190387,45 Z M40.0190387,45 L40.0190387,47 L37.0190387,47 L37.0190387,45 L40.0190387,45 Z M34.0190387,45 L34.0190387,47 L31.0190387,47 L31.0190387,45 L34.0190387,45 Z M28.0190387,45 L28.0190387,47 L25.0190387,47 L25.0190387,45 L28.0190387,45 Z M22.0190387,45 L22.0190387,47 L19.0190387,47 L19.0190387,45 L22.0190387,45 Z M16.0190387,45 L16.0190387,47 L13.0190387,47 L13.0190387,45 L16.0190387,45 Z M10.0190387,45 L10.0190387,47 L7.01903866,47 L7.01903866,45 L10.0190387,45 Z M4.09726435,44.9644327 L3.94196244,46.9583939 C2.91721974,46.8785806 2.26611978,46.6843818 1.57244882,46.2854751 C1.21532244,46.0801039 0.889530629,45.8324403 0.598890293,45.5453398 L2.00441241,44.1224879 C2.17252744,44.2885554 2.3609654,44.431804 2.56947717,44.551712 C2.9992629,44.7988672 3.36248818,44.9072038 4.09726435,44.9644327 Z M1.06856598,42.0064645 L-0.91891973,42.2298487 C-0.973890814,41.7407622 -1,41.1557038 -1,40.4197793 L-1,39.1233334 L1,39.1233334 L1,40.4197793 C1,41.0867249 1.02292187,41.6003615 1.06856598,42.0064645 Z M1,36.1233334 L-1,36.1233334 L-1,33.1233334 L1,33.1233334 L1,36.1233334 Z M1,30.1233334 L-1,30.1233334 L-1,27.1233334 L1,27.1233334 L1,30.1233334 Z M1,24.1233334 L-1,24.1233334 L-1,21.1233334 L1,21.1233334 L1,24.1233334 Z M1,18.1233334 L-1,18.1233334 L-1,15.1233334 L1,15.1233334 L1,18.1233334 Z M1.17463355,12.3706146 L-0.767494926,11.8929777 C-0.669428777,11.494229 -0.53976315,11.153695 -0.354666857,10.7815406 C0.0416632915,9.98467965 0.613235733,9.33302684 1.33394491,8.86101104 L2.42971646,10.5341173 C2.00968003,10.8092128 1.67616852,11.1894511 1.43607152,11.6721898 C1.31321748,11.9192 1.23537426,12.1236356 1.17463355,12.3706146 Z M4.81612949,10.0033172 L4.77876699,8.00366625 C4.90973098,8.00121926 5.04649585,8 5.18955077,8 L5.18955077,10 C5.05868013,10 4.93434402,10.0011085 4.81612949,10.0033172 Z" id="shadow" fill="#0068B3"></path>
                            <path d="M11.3131115,3 L172.686889,3 C174.534373,3 175.204316,3.20203221 175.879728,3.58140647 C176.555141,3.96078073 177.085209,4.51749704 177.446424,5.22686523 C177.807639,5.93623342 178,6.63985641 178,8.58022073 L178,34.4197793 C178,36.3601436 177.807639,37.0637666 177.446424,37.7731348 C177.085209,38.482503 176.555141,39.0392193 175.879728,39.4185935 C175.204316,39.7979678 174.534373,40 172.686889,40 L11.3131115,40 C9.46562686,40 8.79568427,39.7979678 8.12027156,39.4185935 C7.44485875,39.0392193 6.91479091,38.482503 6.5535762,37.7731348 C6.19236148,37.0637666 6,36.3601436 6,34.4197793 L6,8.58022073 C6,6.63985641 6.19236148,5.93623342 6.5535762,5.22686523 C6.91479091,4.51749704 7.44485875,3.96078073 8.12027156,3.58140647 C8.79568427,3.20203221 9.46562686,3 11.3131115,3 Z" id="shadow" fill="#CCE1F0"></path>
                            <path d="M16.1277704,1 L171.87223,1 C173.655267,1 174.30184,1.18565122 174.953691,1.53426541 C175.605543,1.88287959 176.11712,2.39445674 176.465735,3.04630859 C176.814349,3.69816044 177,4.34473292 177,6.1277704 L177,29.8722296 C177,31.6552671 176.814349,32.3018396 176.465735,32.9536914 C176.11712,33.6055433 175.605543,34.1171204 174.953691,34.4657346 C174.30184,34.8143488 173.655267,35 171.87223,35 L16.1277704,35 C14.3447329,35 13.6981604,34.8143488 13.0463086,34.4657346 C12.3944567,34.1171204 11.8828796,33.6055433 11.5342654,32.9536914 C11.1856512,32.3018396 11,31.6552671 11,29.8722296 L11,6.1277704 C11,4.34473292 11.1856512,3.69816044 11.5342654,3.04630859 C11.8828796,2.39445674 12.3944567,1.88287959 13.0463086,1.53426541 C13.6981604,1.18565122 14.3447329,1 16.1277704,1 Z" id="bg" fill="#0068B3"></path>
                            <path d="M16.1277704,2 C14.6531018,2 14.0940391,2.10795999 13.5179074,2.41607862 C13.0403241,2.67149298 12.671493,3.04032404 12.4160786,3.51790747 C12.10796,4.09403915 12,4.65310182 12,6.1277704 L12,29.8722296 C12,31.3468982 12.10796,31.9059609 12.4160786,32.4820926 C12.671493,32.959676 13.040324,33.328507 13.5179075,33.5839214 C14.0940391,33.89204 14.6531018,34 16.1277704,34 L171.87223,34 C173.346898,34 173.905961,33.8920399 174.482092,33.5839214 C174.959676,33.328507 175.328507,32.9596759 175.583922,32.4820927 C175.89204,31.9059612 176,31.3468984 176,29.8722296 L176,6.1277704 C176,4.65310162 175.89204,4.09403888 175.583922,3.51790831 C175.328507,3.04032412 174.959676,2.67149295 174.482092,2.41607835 C173.905961,2.10796008 173.346898,2 171.87223,2 L16.1277704,2 Z M16.1277704,0 L171.87223,4.4408921e-16 C173.648828,1.11022302e-16 174.519806,0.168193711 175.42529,0.652452165 C176.25141,1.09426587 176.905733,1.74858868 177.347548,2.57470992 C177.831807,3.4801947 178,4.35117236 178,6.1277704 L178,29.8722296 C178,31.6488277 177.831807,32.5198054 177.347548,33.4252911 C176.905733,34.2514113 176.25141,34.9057341 175.42529,35.3475475 C174.519806,35.8318063 173.648828,36 171.87223,36 L16.1277704,36 C14.3511724,36 13.4801946,35.8318064 12.5747098,35.3475478 C11.7485894,34.9057338 11.0942662,34.2514106 10.6524522,33.4252903 C10.1681936,32.5198054 10,31.6488276 10,29.8722296 L10,6.1277704 C10,4.3511724 10.1681936,3.48019463 10.6524522,2.57470971 C11.0942662,1.74858936 11.7485894,1.09426616 12.5747097,0.652452226 C13.4801946,0.168193573 14.3511724,3.33066907e-16 16.1277704,0 Z" id="outline" fill="#0068B3"></path>
                        </g>
                    </g>
                </g>
                <path d="M24,13.8571429 C24,13.5416651 23.888394,13.2723225 23.6651786,13.0491071 C23.4419632,12.8258917 23.1726206,12.7142857 22.8571429,12.7142857 C22.5416651,12.7142857 22.2723225,12.8258917 22.0491071,13.0491071 C21.8258917,13.2723225 21.7142857,13.5416651 21.7142857,13.8571429 C21.7142857,14.1726206 21.8258917,14.4419632 22.0491071,14.6651786 C22.2723225,14.888394 22.5416651,15 22.8571429,15 C23.1726206,15 23.4419632,14.888394 23.6651786,14.6651786 C23.888394,14.4419632 24,14.1726206 24,13.8571429 Z M33.5267857,19 C33.5267857,19.3154778 33.4166678,19.5833322 33.1964286,19.8035714 L28.8125,24.1964286 C28.580356,24.4166678 28.3095254,24.5267857 28,24.5267857 C27.6845222,24.5267857 27.4166678,24.4166678 27.1964286,24.1964286 L20.8125,17.8035714 C20.5863084,17.5833322 20.394346,17.28274 20.2366071,16.9017857 C20.0788683,16.5208314 20,16.1726206 20,15.8571429 L20,12.1428571 C20,11.8333318 20.1130941,11.5654773 20.3392857,11.3392857 C20.5654773,11.1130941 20.8333318,11 21.1428571,11 L24.8571429,11 C25.1726206,11 25.5208314,11.0788683 25.9017857,11.2366071 C26.28274,11.394346 26.5863084,11.5863084 26.8125,11.8125 L33.1964286,18.1875 C33.4166678,18.419644 33.5267857,18.6904746 33.5267857,19 Z M36.9553571,19 C36.9553571,19.3154778 36.8452392,19.5833322 36.625,19.8035714 L32.2410714,24.1964286 C32.0089274,24.4166678 31.7380968,24.5267857 31.4285714,24.5267857 C31.2142846,24.5267857 31.0386912,24.4851195 30.9017857,24.4017857 C30.7648803,24.318452 30.6071437,24.1845247 30.4285714,24 L34.625,19.8035714 C34.8452392,19.5833322 34.9553571,19.3154778 34.9553571,19 C34.9553571,18.6904746 34.8452392,18.419644 34.625,18.1875 L28.2410714,11.8125 C28.0148798,11.5863084 27.7113114,11.394346 27.3303571,11.2366071 C26.9494029,11.0788683 26.6011921,11 26.2857143,11 L28.2857143,11 C28.6011921,11 28.9494029,11.0788683 29.3303571,11.2366071 C29.7113114,11.394346 30.0148798,11.5863084 30.2410714,11.8125 L36.625,18.1875 C36.8452392,18.419644 36.9553571,18.6904746 36.9553571,19 Z" id="" fill="#FFFFFF"></path>
                <rect id="Rectangle-12" fill="#FFFFFF" fill-rule="nonzero" x="47" y="13" width="119" height="10" rx="4"></rect>
            </g>
        </g>
    </g>
</svg>