<?xml version="1.0" encoding="UTF-8"?>
<svg width="9px" height="5px" viewBox="0 0 9 5" version="1.1" xmlns="http://www.w3.org/2000/svg" xmlns:xlink="http://www.w3.org/1999/xlink">
    <!-- Generator: Sketch 50.2 (55047) - http://www.bohemiancoding.com/sketch -->
    <title></title>
    <desc>Created with Sketch.</desc>
    <defs></defs>
    <g id="Page-1" stroke="none" stroke-width="1" fill="none" fill-rule="evenodd">
        <g id="FontAwesome-4.3" transform="translate(-40.000000, -1695.000000)" fill="#5A6777">
            <path d="M48.6796625,1695.64844 C48.7786213,1695.7474 48.8281,1695.86458 48.8281,1696 C48.8281,1696.13542 48.7786213,1696.2526 48.6796625,1696.35156 L45.1796625,1699.85156 C45.0807037,1699.95052 44.9635173,1700 44.8281,1700 C44.6926827,1700 44.5754963,1699.95052 44.4765375,1699.85156 L40.9765375,1696.35156 C40.8775787,1696.2526 40.8281,1696.13542 40.8281,1696 C40.8281,1695.86458 40.8775787,1695.7474 40.9765375,1695.64844 C41.0754963,1695.54948 41.1926827,1695.5 41.3281,1695.5 L48.3281,1695.5 C48.4635173,1695.5 48.5807037,1695.54948 48.6796625,1695.64844 Z" id=""></path>
        </g>
    </g>
</svg>